<?xml version="1.0" encoding="utf-8"?>
<!-- Generator: Adobe Illustrator 18.1.1, SVG Export Plug-In . SVG Version: 6.00 Build 0)  -->
<!DOCTYPE svg PUBLIC "-//W3C//DTD SVG 1.1//EN" "http://www.w3.org/Graphics/SVG/1.1/DTD/svg11.dtd">
<svg version="1.1" id="Layer_1" xmlns="http://www.w3.org/2000/svg" xmlns:xlink="http://www.w3.org/1999/xlink" x="0px" y="0px"
	 viewBox="0 0 216.7 216.7" enable-background="new 0 0 216.7 216.7" xml:space="preserve">
<g>
	<g>
		<path d="M93,93.9h18.4c3.5,0,6.4-2.9,6.4-6.4c0-3.5-2.9-6.3-6.4-6.3H93c-3.5,0-6.4,2.9-6.4,6.3C86.6,91,89.5,93.9,93,93.9z"/>
		<path d="M130.4,119.3H93c-3.5,0-6.4,2.8-6.4,6.3c0,3.5,2.8,6.3,6.4,6.3h37.4c3.5,0,6.3-2.9,6.3-6.3
			C136.8,122.2,133.9,119.3,130.4,119.3z"/>
		<path d="M108.3,2.7C50,2.7,2.7,50,2.7,108.3S50,214,108.3,214S214,166.7,214,108.3S166.7,2.7,108.3,2.7z M164.7,126.1
			c-0.1,18.3-15,33.2-33.3,33.2H93.2c-18.3,0-33.2-15-33.2-33.2V87.3C60,69,74.9,54,93.2,54h23.2c8.6,1,21.1,8.4,25.7,18.1
			c1.3,2.7,1.9,3.2,3,11.3c0.5,4.2,0.8,7.3,2.7,9c2.7,2.4,12.4,0.8,14.4,2.3l1.5,1.1l0.9,1.8l0.3,1.5L164.7,126.1z"/>
	</g>
</g>
</svg>
