<?xml version="1.0" encoding="utf-8"?>
<!-- Generator: Adobe Illustrator 18.1.1, SVG Export Plug-In . SVG Version: 6.00 Build 0)  -->
<!DOCTYPE svg PUBLIC "-//W3C//DTD SVG 1.1//EN" "http://www.w3.org/Graphics/SVG/1.1/DTD/svg11.dtd">
<svg version="1.1" id="Layer_1" xmlns="http://www.w3.org/2000/svg" xmlns:xlink="http://www.w3.org/1999/xlink" x="0px" y="0px"
	 viewBox="0 0 216.2 216.2" enable-background="new 0 0 216.2 216.2" xml:space="preserve">
<g>
	<g>
		<g id="Shape_163_copy_10_2_">
			<circle cx="108.1" cy="108.1" r="104"/>
		</g>
		<g id="Tumblr_icon_4_">
			<path fill="#FFFFFF" d="M123.4,141.1c-7,0-10.7-3.1-11.8-5.9c-0.7-1.8-1-5.8-1-12.1l0-28.6h25.8V79h-25.8V50.6H95.2
				C95.2,74.4,79.7,79,74.5,79l-0.1,15.5h13v38.8c0,5,0.5,8.7,1.5,11.3c5.7,14.4,22.1,14.6,26.9,14.6c4.3,0,8.3-0.5,12-1.3
				c3.7-0.9,6.7-1.7,11.2-4v-18.1C133.7,140,128.8,141.1,123.4,141.1z"/>
		</g>
	</g>
</g>
</svg>
