<?xml version="1.0" encoding="utf-8"?>
<!-- Generator: Adobe Illustrator 18.1.1, SVG Export Plug-In . SVG Version: 6.00 Build 0)  -->
<!DOCTYPE svg PUBLIC "-//W3C//DTD SVG 1.1//EN" "http://www.w3.org/Graphics/SVG/1.1/DTD/svg11.dtd">
<svg version="1.1" id="Layer_1" xmlns="http://www.w3.org/2000/svg" xmlns:xlink="http://www.w3.org/1999/xlink" x="0px" y="0px"
	 viewBox="0 0 216 216" enable-background="new 0 0 216 216" xml:space="preserve">
<g>
	<path d="M108,4.8C51,4.8,4.8,51,4.8,108S51,211.2,108,211.2S211.2,165,211.2,108S165,4.8,108,4.8z M155.9,83.9c0,1,0.1,2,0.1,3.1
		c0,31.4-23.9,67.6-67.6,67.6c-13.4,0-25.9-3.9-36.5-10.7c1.9,0.2,3.8,0.3,5.7,0.3c11.1,0,21.4-3.8,29.5-10.2
		c-10.4-0.2-19.2-7.1-22.2-16.5c1.4,0.3,2.9,0.4,4.5,0.4c2.2,0,4.3-0.3,6.2-0.8c-10.9-2.2-19.1-11.8-19.1-23.3c0-0.1,0-0.2,0-0.3
		c3.2,1.8,6.9,2.8,10.7,3c-6.4-4.3-10.6-11.6-10.6-19.8c0-4.3,1.2-8.4,3.2-11.9c11.7,14.4,29.2,23.9,49,24.9
		c-0.4-1.7-0.6-3.6-0.6-5.4c0-13.1,10.7-23.8,23.8-23.8c6.8,0,13,2.9,17.3,7.5c5.4-1.1,10.5-3.1,15.1-5.8
		c-1.8,5.5-5.5,10.2-10.4,13.1c4.8-0.6,9.4-1.9,13.7-3.8C164.6,76.3,160.6,80.5,155.9,83.9z"/>
</g>
</svg>
